<?xml version="1.0"?><svg width="640" height="480" xmlns="http://www.w3.org/2000/svg">
 <g>
  <title>Layer 1</title>
  <circle cx="315.971992" cy="225.45002" r="139.562988" id="circle4417" fill="#ff0000"/>
  <path d="m257.934204,151.476929l70.946899,0c37.334991,0 44.170807,27.557861 44.170807,39.675476c0,15.440247 -7.817871,28.725647 -21.689697,33.421219c11.526428,5.081635 17.785614,9.38147 17.785614,35.566299c0,20.52179 0,25.603424 6.254242,27.953583l0,3.713531l-32.444,0c-1.954437,-6.645172 -3.131958,-13.876617 -3.131958,-28.339691c0,-19.153656 -1.172729,-26.580627 -22.867218,-26.580627l-30.294098,0l0,54.920319l-28.730591,0l0,-140.330109l0,0zm63.12912,61.760864c15.244751,0 22.671692,-5.277039 22.671692,-19.153671c0,-7.426971 -3.322632,-18.371948 -20.516937,-18.371948l-36.548401,0l0,37.52562l34.393646,0l0,0z" id="path4421" fill="#ffffff"/>
  <rect width="74.900002" height="74.900002" x="0" y="0" id="rect4415" fill="none"/>
 </g>
</svg>